<svg width="900" height="700" xmlns="http://www.w3.org/2000/svg">
  <defs>
    <linearGradient id="lbGrad" x1="0%" y1="0%" x2="100%" y2="100%">
      <stop offset="0%" style="stop-color:#3B82F6;stop-opacity:1" />
      <stop offset="100%" style="stop-color:#1D4ED8;stop-opacity:1" />
    </linearGradient>
    <linearGradient id="gwGrad" x1="0%" y1="0%" x2="100%" y2="100%">
      <stop offset="0%" style="stop-color:#10B981;stop-opacity:1" />
      <stop offset="100%" style="stop-color:#059669;stop-opacity:1" />
    </linearGradient>
    <linearGradient id="serviceGrad" x1="0%" y1="0%" x2="100%" y2="100%">
      <stop offset="0%" style="stop-color:#8B5CF6;stop-opacity:1" />
      <stop offset="100%" style="stop-color:#7C3AED;stop-opacity:1" />
    </linearGradient>
    <linearGradient id="storageGrad" x1="0%" y1="0%" x2="100%" y2="100%">
      <stop offset="0%" style="stop-color:#F59E0B;stop-opacity:1" />
      <stop offset="100%" style="stop-color:#D97706;stop-opacity:1" />
    </linearGradient>
    <filter id="shadow" x="-20%" y="-20%" width="140%" height="140%">
      <feDropShadow dx="3" dy="3" stdDeviation="4" flood-color="#000000" flood-opacity="0.3"/>
    </filter>
    <marker id="arrowhead" markerWidth="10" markerHeight="7" refX="9" refY="3.5" orient="auto">
      <polygon points="0 0, 10 3.5, 0 7" fill="#64748B" />
    </marker>
  </defs>
  
  <!-- Background -->
  <rect width="900" height="700" fill="#F8FAFC"/>
  
  <!-- Title -->
  <text x="450" y="30" text-anchor="middle" font-family="Arial, sans-serif" font-size="22" font-weight="bold" fill="#1E293B">微服务架构图 Microservices Architecture</text>
  
  <!-- Load Balancer Layer -->
  <g>
    <rect x="50" y="70" width="800" height="80" rx="10" fill="url(#lbGrad)" filter="url(#shadow)"/>
    <text x="450" y="95" text-anchor="middle" font-family="Arial, sans-serif" font-size="16" font-weight="bold" fill="white">负载均衡层 Load Balancer Layer</text>
    
    <rect x="375" y="110" width="150" height="30" rx="5" fill="rgba(255,255,255,0.9)"/>
    <text x="450" y="130" text-anchor="middle" font-family="Arial, sans-serif" font-size="12" fill="#1E293B">Nginx负载均衡器</text>
  </g>
  
  <!-- API Gateway Layer -->
  <g>
    <rect x="50" y="170" width="800" height="80" rx="10" fill="url(#gwGrad)" filter="url(#shadow)"/>
    <text x="450" y="195" text-anchor="middle" font-family="Arial, sans-serif" font-size="16" font-weight="bold" fill="white">API网关层 API Gateway Layer</text>
    
    <rect x="375" y="210" width="150" height="30" rx="5" fill="rgba(255,255,255,0.9)"/>
    <text x="450" y="230" text-anchor="middle" font-family="Arial, sans-serif" font-size="12" fill="#1E293B">API Gateway</text>
  </g>
  
  <!-- Service Layer -->
  <g>
    <rect x="50" y="270" width="800" height="200" rx="10" fill="url(#serviceGrad)" filter="url(#shadow)"/>
    <text x="450" y="295" text-anchor="middle" font-family="Arial, sans-serif" font-size="16" font-weight="bold" fill="white">服务层 Service Layer</text>
    
    <!-- Web Services -->
    <text x="200" y="320" text-anchor="middle" font-family="Arial, sans-serif" font-size="14" font-weight="bold" fill="white">Web服务实例</text>
    
    <rect x="100" y="330" width="120" height="30" rx="5" fill="rgba(255,255,255,0.9)"/>
    <text x="160" y="350" text-anchor="middle" font-family="Arial, sans-serif" font-size="11" fill="#1E293B">Web服务实例1</text>
    
    <rect x="240" y="330" width="120" height="30" rx="5" fill="rgba(255,255,255,0.9)"/>
    <text x="300" y="350" text-anchor="middle" font-family="Arial, sans-serif" font-size="11" fill="#1E293B">Web服务实例2</text>
    
    <rect x="100" y="370" width="120" height="30" rx="5" fill="rgba(255,255,255,0.9)"/>
    <text x="160" y="390" text-anchor="middle" font-family="Arial, sans-serif" font-size="11" fill="#1E293B">Web服务实例3</text>
    
    <!-- Model Services -->
    <text x="650" y="320" text-anchor="middle" font-family="Arial, sans-serif" font-size="14" font-weight="bold" fill="white">模型服务实例</text>
    
    <rect x="580" y="330" width="140" height="30" rx="5" fill="rgba(255,255,255,0.9)"/>
    <text x="650" y="350" text-anchor="middle" font-family="Arial, sans-serif" font-size="11" fill="#1E293B">模型服务实例1</text>
    
    <rect x="580" y="370" width="140" height="30" rx="5" fill="rgba(255,255,255,0.9)"/>
    <text x="650" y="390" text-anchor="middle" font-family="Arial, sans-serif" font-size="11" fill="#1E293B">模型服务实例2</text>
    
    <!-- Service connections -->
    <line x1="220" y1="345" x2="580" y2="345" stroke="#E2E8F0" stroke-width="2" marker-end="url(#arrowhead)"/>
    <line x1="360" y1="345" x2="580" y2="385" stroke="#E2E8F0" stroke-width="2" marker-end="url(#arrowhead)"/>
    <line x1="220" y1="385" x2="580" y2="345" stroke="#E2E8F0" stroke-width="2" marker-end="url(#arrowhead)"/>
  </g>
  
  <!-- Storage Layer -->
  <g>
    <rect x="50" y="490" width="800" height="120" rx="10" fill="url(#storageGrad)" filter="url(#shadow)"/>
    <text x="450" y="515" text-anchor="middle" font-family="Arial, sans-serif" font-size="16" font-weight="bold" fill="white">存储层 Storage Layer</text>
    
    <rect x="150" y="530" width="120" height="30" rx="5" fill="rgba(255,255,255,0.9)"/>
    <text x="210" y="550" text-anchor="middle" font-family="Arial, sans-serif" font-size="11" fill="#1E293B">文件存储 FS</text>
    
    <rect x="390" y="530" width="120" height="30" rx="5" fill="rgba(255,255,255,0.9)"/>
    <text x="450" y="550" text-anchor="middle" font-family="Arial, sans-serif" font-size="11" fill="#1E293B">数据库 DB</text>
    
    <rect x="630" y="530" width="120" height="30" rx="5" fill="rgba(255,255,255,0.9)"/>
    <text x="690" y="550" text-anchor="middle" font-family="Arial, sans-serif" font-size="11" fill="#1E293B">Redis缓存</text>
  </g>
  
  <!-- Main Connection Arrows -->
  <!-- Load Balancer to API Gateway -->
  <line x1="450" y1="150" x2="450" y2="170" stroke="#64748B" stroke-width="3" marker-end="url(#arrowhead)"/>
  
  <!-- API Gateway to Services -->
  <line x1="400" y1="250" x2="160" y2="330" stroke="#64748B" stroke-width="2" marker-end="url(#arrowhead)"/>
  <line x1="450" y1="250" x2="300" y2="330" stroke="#64748B" stroke-width="2" marker-end="url(#arrowhead)"/>
  <line x1="500" y1="250" x2="160" y2="370" stroke="#64748B" stroke-width="2" marker-end="url(#arrowhead)"/>
  
  <!-- Services to Storage -->
  <line x1="160" y1="400" x2="210" y2="530" stroke="#64748B" stroke-width="2" marker-end="url(#arrowhead)"/>
  <line x1="300" y1="360" x2="450" y2="530" stroke="#64748B" stroke-width="2" marker-end="url(#arrowhead)"/>
  <line x1="160" y1="400" x2="690" y2="530" stroke="#64748B" stroke-width="2" marker-end="url(#arrowhead)"/>
  
  <!-- Architecture Benefits -->
  <g>
    <rect x="50" y="630" width="800" height="60" rx="10" fill="white" stroke="#E2E8F0" stroke-width="2" filter="url(#shadow)"/>
    <text x="450" y="650" text-anchor="middle" font-family="Arial, sans-serif" font-size="14" font-weight="bold" fill="#1E293B">架构优势 Architecture Benefits</text>
    
    <text x="70" y="670" font-family="Arial, sans-serif" font-size="11" fill="#475569">• 高可用性：多实例部署，单点故障不影响整体服务</text>
    <text x="350" y="670" font-family="Arial, sans-serif" font-size="11" fill="#475569">• 可扩展性：根据负载动态调整服务实例数量</text>
    <text x="650" y="670" font-family="Arial, sans-serif" font-size="11" fill="#475569">• 负载均衡：智能分发请求，优化资源利用</text>
  </g>
</svg>