<svg xmlns="http://www.w3.org/2000/svg" viewBox="0 0 64 64" width="64" height="64">
  <defs>
    <linearGradient id="bg" x1="0%" y1="0%" x2="100%" y2="100%">
      <stop offset="0%" style="stop-color:#667eea;stop-opacity:1" />
      <stop offset="100%" style="stop-color:#764ba2;stop-opacity:1" />
    </linearGradient>
    <linearGradient id="brush" x1="0%" y1="0%" x2="100%" y2="100%">
      <stop offset="0%" style="stop-color:#f093fb;stop-opacity:1" />
      <stop offset="100%" style="stop-color:#f5576c;stop-opacity:1" />
    </linearGradient>
  </defs>
  
  <!-- Background circle -->
  <circle cx="32" cy="32" r="30" fill="url(#bg)" stroke="#fff" stroke-width="2"/>
  
  <!-- Neural network nodes -->
  <circle cx="16" cy="20" r="3" fill="#fff" opacity="0.8"/>
  <circle cx="16" cy="32" r="3" fill="#fff" opacity="0.8"/>
  <circle cx="16" cy="44" r="3" fill="#fff" opacity="0.8"/>
  
  <circle cx="32" cy="16" r="3" fill="#fff" opacity="0.9"/>
  <circle cx="32" cy="32" r="4" fill="#fff"/>
  <circle cx="32" cy="48" r="3" fill="#fff" opacity="0.9"/>
  
  <circle cx="48" cy="20" r="3" fill="#fff" opacity="0.8"/>
  <circle cx="48" cy="32" r="3" fill="#fff" opacity="0.8"/>
  <circle cx="48" cy="44" r="3" fill="#fff" opacity="0.8"/>
  
  <!-- Neural connections -->
  <line x1="19" y1="20" x2="29" y2="16" stroke="#fff" stroke-width="1" opacity="0.6"/>
  <line x1="19" y1="32" x2="28" y2="32" stroke="#fff" stroke-width="2" opacity="0.8"/>
  <line x1="19" y1="44" x2="29" y2="48" stroke="#fff" stroke-width="1" opacity="0.6"/>
  
  <line x1="35" y1="16" x2="45" y2="20" stroke="#fff" stroke-width="1" opacity="0.6"/>
  <line x1="36" y1="32" x2="45" y2="32" stroke="#fff" stroke-width="2" opacity="0.8"/>
  <line x1="35" y1="48" x2="45" y2="44" stroke="#fff" stroke-width="1" opacity="0.6"/>
  
  <!-- Art brush stroke -->
  <path d="M 12 52 Q 20 48 28 52 Q 36 56 44 52 Q 52 48 60 52" 
        stroke="url(#brush)" stroke-width="3" fill="none" stroke-linecap="round"/>
  
  <!-- Small sparkles for artistic effect -->
  <circle cx="22" cy="12" r="1" fill="#fff" opacity="0.9"/>
  <circle cx="42" cy="14" r="1" fill="#fff" opacity="0.9"/>
  <circle cx="54" cy="26" r="1" fill="#fff" opacity="0.9"/>
  <circle cx="10" cy="38" r="1" fill="#fff" opacity="0.9"/>
</svg>